<?xml version="1.0" encoding="UTF-8"?>
<!DOCTYPE svg PUBLIC "-//W3C//DTD SVG 1.1//EN" "http://www.w3.org/Graphics/SVG/1.1/DTD/svg11.dtd">
<!-- Creator: CorelDRAW -->
<svg xmlns="http://www.w3.org/2000/svg" xml:space="preserve" width="189.618mm" height="189.618mm" version="1.1" style="shape-rendering:geometricPrecision; text-rendering:geometricPrecision; image-rendering:optimizeQuality; fill-rule:evenodd; clip-rule:evenodd"
viewBox="0 0 18961.8 18961.8"
 xmlns:xlink="http://www.w3.org/1999/xlink"
 xmlns:xodm="http://www.corel.com/coreldraw/odm/2003">
 <defs>
  <style type="text/css">
   <![CDATA[
    .fil0 {fill:#22C55E}
    .fil1 {fill:#22C55E}
   ]]>
  </style>
 </defs>
 <g id="Layer_x0020_1">
  <metadata id="CorelCorpID_0Corel-Layer"/>
  <path class="fil0" d="M4947.08 0.01c26.24,0 52.83,0 79.79,0l32.62 0c309.94,-0.02 509.4,-0.03 704.38,18.2 838.98,78.46 1634.8,408.09 2283.52,945.87 150.81,124.99 291.83,266.03 511,485.21l508.26 508.35c745.95,745.87 1032.67,1024.3 1363.93,1208.58 192.26,106.97 396.17,191.45 607.83,251.77 364.51,103.9 764.12,109.8 1818.93,109.8l374.47 0c1122.72,-0.02 2027.68,-0.03 2743.73,90 742.07,93.29 1372.66,292.38 1890.62,758.28 86.79,78.03 169.34,160.6 247.39,247.35 465.93,518 664.98,1148.54 758.29,1890.63 89.96,716.04 89.96,1621.09 89.96,2743.72l0 2036.76c0,1620.84 0,2904.6 -135.02,3909.31 -139,1034.08 -431.98,1870.95 -1091.94,2531 -660.05,659.96 -1496.92,952.94 -2531,1091.94 -1004.71,135.02 -2288.47,135.02 -3909.31,135.02l-3627.25 0c-1620.81,0 -2904.6,0 -3909.33,-135.02 -1034.01,-139 -1870.93,-431.98 -2530.94,-1091.94 -660.01,-660.05 -952.92,-1496.92 -1091.94,-2531 -135.08,-1004.71 -135.07,-2288.47 -135.06,-3909.31l0 -6267.66c0,-26.96 0,-53.55 0,-79.79 -0.1,-701.95 -0.17,-1148.68 72.63,-1534.53 319.73,-1694.63 1645.28,-3020.18 3339.91,-3339.91 385.85,-72.8 832.58,-72.73 1534.53,-72.63zm79.79 1322.92c-808.43,0 -1120.98,2.89 -1369.04,49.69 -1159.49,218.77 -2066.44,1125.72 -2285.21,2285.21 -46.8,248.06 -49.69,560.61 -49.69,1369.04l0 6217.92c0,1681.69 1.4,2876.46 123.26,3782.84 119.29,887.32 343.02,1398.49 716.26,1771.73 373.25,373.24 884.47,596.99 1771.79,716.32 906.34,121.8 2101.08,123.21 3782.77,123.21l3527.78 0c1681.69,0 2876.46,-1.41 3782.84,-123.21 887.32,-119.33 1398.49,-343.08 1771.73,-716.32 373.24,-373.24 596.99,-884.41 716.32,-1771.73 121.8,-906.38 123.21,-2101.15 123.21,-3782.84l0 -1942.13c0,-1178.1 -1.24,-1999.72 -79.64,-2623.59 -76.38,-607.34 -216.61,-934.47 -429.33,-1170.99 -46.84,-52.05 -96.31,-101.59 -148.44,-148.4 -236.44,-212.73 -563.56,-352.95 -1170.95,-429.31 -623.89,-78.43 -1445.42,-79.66 -2623.61,-79.66l-329.58 0c-32.81,0 -65.18,0 -97.19,0.01 -924.28,0.19 -1520.3,0.31 -2084.39,-160.49 -309.3,-88.15 -607.4,-211.62 -888.38,-367.97 -512.59,-285.19 -933.98,-706.73 -1587.42,-1360.4 -22.57,-22.65 -45.5,-45.57 -68.7,-68.78l-485.31 -485.3c-249.83,-249.82 -345.41,-344.46 -442.84,-425.23 -443.86,-367.95 -988.37,-593.49 -1562.41,-647.17 -126,-11.79 -260.51,-12.45 -613.83,-12.45z"/>
  <rect class="fil1" x="8850.91" y="6963.8" width="1260" height="8561.97" rx="450" ry="450"/>
  <rect class="fil1" transform="matrix(2.38361E-14 -0.9 0.9 2.38361E-14 5199.92 11874.8)" width="1400" height="9513.3" rx="500" ry="500"/>
 </g>
</svg>
