<?xml version="1.0" encoding="UTF-8"?>
<!DOCTYPE svg PUBLIC "-//W3C//DTD SVG 1.1//EN" "http://www.w3.org/Graphics/SVG/1.1/DTD/svg11.dtd">
<!-- Creator: CorelDRAW -->
<svg xmlns="http://www.w3.org/2000/svg" xml:space="preserve" width="21.6746mm" height="13.2926mm" version="1.1" style="shape-rendering:geometricPrecision; text-rendering:geometricPrecision; image-rendering:optimizeQuality; fill-rule:evenodd; clip-rule:evenodd"
viewBox="0 0 2167.46 1329.26"
 xmlns:xlink="http://www.w3.org/1999/xlink"
 xmlns:xodm="http://www.corel.com/coreldraw/odm/2003">
 <defs>
  <style type="text/css">
   <![CDATA[
    .fil0 {fill:#201E1E}
   ]]>
  </style>
 </defs>
 <g id="Layer_x0020_1">
  <metadata id="CorelCorpID_0Corel-Layer"/>
  <g id="_1683014353696">
   <path class="fil0" d="M1465.35 820.43l-110.71 0 0 -537.3c76.79,0 142.45,-9.13 198.57,26.12 18.39,11.54 16.06,16.52 20.08,41.79 19.56,123.21 90.21,169.93 96.41,186.89 2.27,6.21 4.06,20.67 4.06,28.51 0,80.39 -18.23,134.3 -52.98,181.47 -32.06,43.5 -82.64,64.27 -135.45,69.74l-19.98 2.78zm390.77 -758.73c106.55,0 189.1,51.96 231.22,136.74 46.43,93.45 32.19,189.02 -33.04,269.85 -20.68,25.62 -50.6,48.8 -80.97,62.31 -82.45,36.69 -177.47,30.57 -249.41,-24.09 -61.6,-46.81 -95.54,-110.16 -101,-199.31 -3.34,-54.51 25.75,-128.12 66.29,-168.18 21.57,-21.31 39.31,-37.8 68.05,-52.43 26.68,-13.58 60.38,-24.89 98.86,-24.89zm-1462.91 221.43c3.09,-13.16 14.39,-17.41 35.57,-20.63 16.42,-2.5 33.63,-3 50.24,-2.34l2.89 -29.5c-105.2,4.96 -248.46,0.01 -361.43,0.57 -32.01,0.16 -88.7,-3.71 -116.96,1.97l0.78 26.55c21.72,0.53 49.64,3.4 67.69,10.4l18.87 9.62c24.19,14.82 27.11,10.61 23.79,22.9 5.59,10.51 15.75,16.74 24.04,27.38 25.43,32.64 83.19,123.68 105.68,161.34 6.5,10.88 13.13,19.76 20.73,31.37 8.07,12.33 13.89,22.48 21.48,33.87l40.08 64.13c13.69,23.16 27.87,43.03 41.94,65.52 7.46,11.94 12.2,19.97 20.2,31.9l63.82 99 -197.25 281.42c-24.88,34.39 -76.13,111.12 -103.12,137.86 -13.91,13.79 -13.87,17.63 -28.5,23.58 6.71,8.78 14.11,6.16 -14.31,18.38 -55.2,23.73 -43.52,14.59 -96.51,20.18l0.64 25.52c72.13,10.76 264.41,-7.2 337.05,3.77l-1.24 -32.01c-43.8,6.94 -73.46,2.66 -102.67,-22.81l4.02 -3.28c-13.41,-43.93 11.1,-66.91 38.43,-108.09l97.66 -140.05c14.39,-21.6 95.72,-132.7 98.37,-142.6 13.46,9.01 62.64,93.7 72.96,109.39l35.13 56.04c12.55,20.06 23.13,38.13 36.47,57.97l68.36 114c13.76,28 4.9,52.51 -16.33,64.34 -21.68,12.09 -50.24,11.81 -82.62,11.81l0 39.08 902.01 0 0 -39.08c-124.84,0 -146.54,-20.64 -146.53,-133.51 0.01,-93.35 0,-186.69 0,-280.04 168.68,0 345.28,16.21 461.98,-130.68 15.23,-19.16 27.77,-37.95 38.15,-62.8 12.11,-28.99 18.55,-65.15 24.14,-76.8 67.27,0 120.36,-25.79 160.93,-54 137.61,-95.68 176.08,-297.95 55,-441.98 -9.97,-11.85 -12.19,-16.87 -25.17,-26.92 -11.88,-9.2 -18.79,-15.95 -30.69,-24.68 -70.83,-52 -167.61,-69.07 -255.98,-43.3 -64.7,18.87 -103.03,49.51 -144.34,96.63 -33.01,37.67 -50.82,79 -62.59,129.54 -57.67,-27.68 -165.75,-19.54 -250.74,-19.54 -91.18,0 -182.36,0 -273.54,0l0 42.33c77.29,0 107.9,28.22 107.49,100.93l-0.02 771.78c0,53.98 3.8,87.04 -20.75,119.27 -35.75,46.94 -131.32,38.54 -191.93,-33.6 -41.1,-48.91 -205.9,-320.77 -245.84,-382.64 -5.21,-8.09 -8.63,-14.69 -13.62,-22.19l-68.42 -110.68c2.95,-12.68 10.62,-19.62 18.23,-30.62 53.83,-77.79 116.12,-162.22 167.39,-239.65l41.41 -59.54c32.16,-42.89 69.13,-113.06 144.19,-113.06l0 -42.33 -270.27 0 0 42.33c30.4,0 53.97,0.19 68.76,15.91 36.29,38.57 -23.53,101.66 -47.94,138.42 -6.89,10.38 -11.19,17.41 -18.48,27.11l-69.4 99.94c-12.49,18.04 -65.9,88.61 -69.71,102.87 -9.29,-6.22 -87.51,-134.12 -99.04,-151.7 -5.97,-9.12 -9.44,-15.98 -14.9,-24.17 -10.64,-15.98 -77.08,-119.22 -82.85,-135.34 -10.86,-30.36 -3.22,-36.48 7.12,-56.76z"/>
   <path class="fil0" d="M1830.07 338.49l-63.9 -63.1c-7.8,-8.32 -12.91,-14.73 -20.77,-21.56l-46.38 44.8c12.89,23.17 48.01,56.99 66.71,78.15 7.05,7.98 8.21,11.5 16.24,19.57 21.25,21.35 34.43,42.6 54.61,56.11l99.92 -124.76c9.3,-11.49 94.52,-113.52 98.72,-129.23l-35.04 -36.6c-12.04,8.24 -65.44,67.06 -86.26,87.89l-83.85 88.73z"/>
   <path class="fil0" d="M114.65 302.67c3.32,-12.29 0.4,-8.08 -23.79,-22.9l-18.87 -9.62c-18.05,-7 -45.97,-9.87 -67.69,-10.4l-0.78 -26.55c28.26,-5.68 84.95,-1.81 116.96,-1.97 112.97,-0.56 256.23,4.39 361.43,-0.57l-2.89 29.5c-16.61,-0.66 -33.82,-0.16 -50.24,2.34 -21.18,3.22 -32.48,7.47 -35.57,20.63 32.64,-18.85 42.76,-16.28 91.98,-16.28l0 -42.33 -485.2 0 0 42.33c69.83,0 68.63,8.72 114.66,35.82z"/>
   <path class="fil0" d="M250.73 1269.79l-4.02 3.28c29.21,25.47 58.87,29.75 102.67,22.81l1.24 32.01c-72.64,-10.97 -264.92,6.99 -337.05,-3.77l-0.64 -25.52c52.99,-5.59 41.31,3.55 96.51,-20.18 28.42,-12.22 21.02,-9.6 14.31,-18.38 -13.5,25.45 -82.68,32.56 -113.99,32.56l0 39.08 345.17 0 0 -39.08c-21.59,0 -45.71,0.28 -62.48,-2.64 -33.61,-5.85 -28.59,-13.2 -41.72,-20.17z"/>
  </g>
 </g>
</svg>
