<?xml version="1.0" encoding="UTF-8"?>
<!DOCTYPE svg PUBLIC "-//W3C//DTD SVG 1.1//EN" "http://www.w3.org/Graphics/SVG/1.1/DTD/svg11.dtd">
<!-- Creator: CorelDRAW -->
<svg xmlns="http://www.w3.org/2000/svg" xml:space="preserve" width="189.618mm" height="189.618mm" version="1.1" style="shape-rendering:geometricPrecision; text-rendering:geometricPrecision; image-rendering:optimizeQuality; fill-rule:evenodd; clip-rule:evenodd"
viewBox="0 0 18961.8 18961.8"
 xmlns:xlink="http://www.w3.org/1999/xlink"
 xmlns:xodm="http://www.corel.com/coreldraw/odm/2003">
 <defs>
  <style type="text/css">
   <![CDATA[
    .fil0 {fill:#2563EB}
   ]]>
  </style>
 </defs>
 <g id="Layer_x0020_1">
  <metadata id="CorelCorpID_0Corel-Layer"/>
  <g id="_1793749992464">
   <path class="fil0" d="M4047.5 9469.76c0,-372.34 1565.8,-2024.42 2085.02,-2428.76 416.71,-324.51 889.68,-679.69 1379.29,-877.59 1988.31,-803.6 3621.8,-458.14 5322.93,866.59 499.52,389.01 2074.02,2056.05 2074.02,2439.76 0,256.23 -1036.95,1484.95 -1497.15,1888.17 -217.63,190.7 -339.21,366.51 -576.87,551.58 -1907.26,1485.25 -3935.82,1763.64 -6015.52,501.26l-667.15 -461.28c-125.61,-100.46 -159.28,-152.56 -300.92,-263.29 -562.98,-440.15 -446.54,-470.28 -833.53,-859.14 -167.37,-168.18 -970.12,-1158.52 -970.12,-1357.3zm-2115.82 70.53c0,459.02 934.87,1617.4 1184.69,1989.05 261.2,388.56 1180.58,1379.97 1524.8,1648.92 309.08,241.49 555.48,467.56 872.11,679.51 2502.73,1675.2 5400.12,1692.93 7887.11,27.95 371.58,-248.76 572.36,-442 914.44,-707.72 274.25,-213.01 542.67,-513.11 789.25,-762.33 172.07,-173.89 200.5,-252.9 352.42,-423.4 437.67,-491.24 1568.08,-1919.75 1568.08,-2522.51 0,-747.05 -1926.76,-3077.28 -2720.5,-3697.52 -594.73,-464.73 -1136.23,-938.53 -1886.06,-1287.69 -2086.15,-971.39 -4346.37,-885.71 -6328.87,256.2 -832.07,479.25 -1625.99,1088.61 -2270.32,1820.28 -578.81,657.28 -1887.15,2249.31 -1887.15,2979.26z"/>
   <path class="fil0" d="M27.44 13419.29c0,2298.97 -422.11,4362.29 1951,5313.33 353.54,141.68 957.07,187.83 1434.32,187.83 2006.78,0 11719.19,86.18 12920.61,-56.46 1824.16,-216.58 2595.45,-1540.75 2595.45,-3469.93 0,-1730.37 291.45,-3103.2 -1128.45,-3103.2 -1229.59,0 -781.31,2452.44 -842.51,3812.3 -19.87,441.57 -358.43,842.51 -779.61,842.51l-13400.24 0c-425.03,0 -742.63,-375.57 -776.79,-774.79 -159.38,-1861.71 563.71,-3880.02 -1127.46,-3880.02 -510.65,0 -846.32,602.34 -846.32,1128.43z"/>
   <path class="fil0" d="M27.44 2840.17c0,846.08 -149.12,2977.67 226.57,3440.87 490.74,605.08 1503.04,468.73 1689.29,-396.56 320.93,-1490.87 -576.11,-3890.64 975.77,-3890.64l13259.18 0c412.62,0 728.83,409.54 770.52,781.09 182.69,1628.7 -550.44,3873.72 1063.2,3873.72 1209.82,0 916.85,-1998.14 916.85,-3103.2 0,-1506.45 -450.8,-2728.22 -1740.49,-3266.97 -362.27,-151.34 -943.84,-259.41 -1433.25,-259.41l-12553.9 0c-1826.82,0 -3173.74,1259.82 -3173.74,2821.1z"/>
   <path class="fil0" d="M7573.89 9469.76c0,1033.35 901.26,1904.24 1904.24,1904.24 1080.25,0 1904.25,-845.64 1904.25,-2045.31 0,-1505.76 -2241.84,-2564.7 -3439.16,-970.67 -229.47,305.5 -369.33,684.5 -369.33,1111.74z"/>
  </g>
 </g>
</svg>
